<svg width="45" height="50" viewBox="0 0 45 50" fill="none" xmlns="http://www.w3.org/2000/svg">
<path fill-rule="evenodd" clip-rule="evenodd" d="M20.7002 14.5342V49H45.0002V1L20.7002 14.5342Z" fill="url(#paint0_linear_59_26)"/>
<path d="M23.1904 0.571823C23.5204 0.205612 23.9674 0 24.4336 0H43.2422C44.2131 0 45 0.874329 45 1.95312V48.0469C45 49.1257 44.2131 50 43.2422 50H15.1172C14.1463 50 13.3594 49.1257 13.3594 48.0469V12.3047C13.3594 11.7867 13.5444 11.29 13.874 10.9234L23.1904 0.571823ZM16.875 46.0938H41.4844V3.90625H25.1618L16.875 13.1138V46.0938ZM22.5879 39.1113C22.5879 40.1901 23.3748 41.0645 24.3457 41.0645H34.0137C34.9846 41.0645 35.7715 40.1901 35.7715 39.1113C35.7715 38.0325 34.9846 37.1582 34.0137 37.1582H24.3457C23.3748 37.1582 22.5879 38.0325 22.5879 39.1113ZM36.2109 28.2227H22.1484C21.1775 28.2227 20.3906 29.097 20.3906 30.1758C20.3906 31.2546 21.1775 32.1289 22.1484 32.1289H36.2109C37.1819 32.1289 37.9688 31.2546 37.9688 30.1758C37.9688 29.097 37.1819 28.2227 36.2109 28.2227ZM34.0137 19.2871H24.3457C23.3748 19.2871 22.5879 20.1614 22.5879 21.2402C22.5879 22.319 23.3748 23.1934 24.3457 23.1934H34.0137C34.9846 23.1934 35.7715 22.319 35.7715 21.2402C35.7715 20.1614 34.9846 19.2871 34.0137 19.2871ZM1.75781 0H8.4375C9.40842 0 10.1953 0.874329 10.1953 1.95312V40.625C10.1953 40.9283 10.1318 41.2273 10.0099 41.4986L6.67008 48.9204C6.0236 50.3567 4.1724 50.3582 3.52558 48.9204L0.185739 41.4986C0.0635159 41.2273 1.19209e-06 40.9283 1.19209e-06 40.625V1.95312C1.19209e-06 0.874329 0.786897 0 1.75781 0ZM3.51563 40.1638L5.09766 43.6794L6.67969 40.1638V3.90625H3.51563V40.1638Z" fill="#2C9205"/>
<defs>
<linearGradient id="paint0_linear_59_26" x1="20.8217" y1="-1.22405" x2="20.8217" y2="49.72" gradientUnits="userSpaceOnUse">
<stop stop-color="#45B61E"/>
<stop offset="1" stop-color="white"/>
</linearGradient>
</defs>
</svg>
